<svg xmlns="http://www.w3.org/2000/svg" viewBox="0 0 512 512" fill="none"><rect width="512" height="512" rx="113" fill="#09090B"/><g transform="translate(86.4 73.23) scale(0.64243)"><path d="M266.86 126.484C282.193 126.484 296.901 132.573 307.745 143.417C318.589 154.26 324.677 168.969 324.677 184.302V381.849C324.677 397.182 318.589 411.891 307.745 422.734C296.901 433.578 282.193 439.672 266.86 439.672C251.521 439.672 236.813 433.578 225.969 422.734C215.125 411.891 209.037 397.182 209.037 381.849V184.302C209.037 168.969 215.125 154.26 225.969 143.417C236.813 132.573 251.521 126.484 266.86 126.484Z" fill="#ffffff" fill-opacity="0.5"/><path d="M467.766 131.078C483.099 131.078 497.807 137.172 508.651 148.016C519.495 158.859 525.589 173.568 525.589 188.901V381.849C525.589 397.182 519.495 411.891 508.651 422.734C497.807 433.578 483.099 439.672 467.766 439.672C452.432 439.672 437.724 433.578 426.88 422.734C416.037 411.891 409.943 397.182 409.943 381.849V188.901C409.943 173.568 416.037 158.859 426.88 148.016C437.724 137.172 452.432 131.078 467.766 131.078Z" fill="#ffffff" fill-opacity="0.5"/><path d="M509.318 147.386C520.161 158.229 526.25 172.938 526.25 188.271C526.25 203.61 520.161 218.313 509.318 229.157L309.234 429.24C298.39 440.084 283.682 446.177 268.349 446.177C253.01 446.177 238.307 440.084 227.463 429.24C216.62 418.396 210.526 403.688 210.526 388.354C210.526 373.021 216.62 358.313 227.463 347.469L427.542 147.386C438.385 136.542 453.094 130.448 468.432 130.448C483.765 130.448 498.474 136.542 509.318 147.386Z" fill="#ffffff"/><path d="M509.318 347.432C520.162 358.276 526.256 372.984 526.256 388.318C526.256 403.656 520.162 418.365 509.318 429.208L509.282 429.24C498.438 440.083 483.735 446.177 468.396 446.177C453.063 446.177 438.354 440.083 427.511 429.24C416.667 418.396 410.573 403.693 410.573 388.354C410.573 373.021 416.667 358.313 427.511 347.469L427.547 347.432C438.391 336.589 453.094 330.5 468.433 330.5C483.766 330.5 498.474 336.589 509.318 347.432Z" fill="#ffffff"/><path d="M307.74 139.718C318.583 150.562 324.672 165.271 324.672 180.609C324.672 195.942 318.583 210.651 307.74 221.494L99.9896 429.239C89.1458 440.083 74.4375 446.177 59.1042 446.177C43.7708 446.177 29.0625 440.083 18.2188 429.239C7.375 418.396 1.28125 403.692 1.28125 388.354C1.28125 373.021 7.375 358.312 18.2188 347.468L225.964 139.718C236.807 128.875 251.516 122.786 266.849 122.786C282.188 122.786 296.896 128.875 307.74 139.718Z" fill="#ffffff"/></g></svg>