<svg viewBox="-9 109 3515 347" fill="none" xmlns="http://www.w3.org/2000/svg" role="img" aria-label="MentionScout">
    <path d="M266.86 126.484C282.193 126.484 296.901 132.573 307.745 143.417C318.589 154.26 324.677 168.969 324.677 184.302V381.849C324.677 397.182 318.589 411.891 307.745 422.734C296.901 433.578 282.193 439.672 266.86 439.672C251.521 439.672 236.813 433.578 225.969 422.734C215.125 411.891 209.037 397.182 209.037 381.849V184.302C209.037 168.969 215.125 154.26 225.969 143.417C236.813 132.573 251.521 126.484 266.86 126.484Z" fill="#0B0809" fill-opacity="0.22" /><path d="M467.766 131.078C483.099 131.078 497.807 137.172 508.651 148.016C519.495 158.859 525.589 173.568 525.589 188.901V381.849C525.589 397.182 519.495 411.891 508.651 422.734C497.807 433.578 483.099 439.672 467.766 439.672C452.432 439.672 437.724 433.578 426.88 422.734C416.037 411.891 409.943 397.182 409.943 381.849V188.901C409.943 173.568 416.037 158.859 426.88 148.016C437.724 137.172 452.432 131.078 467.766 131.078Z" fill="#0B0809" fill-opacity="0.22" /><path d="M509.318 147.386C520.161 158.229 526.25 172.938 526.25 188.271C526.25 203.61 520.161 218.313 509.318 229.157L309.234 429.24C298.39 440.084 283.682 446.177 268.349 446.177C253.01 446.177 238.307 440.084 227.463 429.24C216.62 418.396 210.526 403.688 210.526 388.354C210.526 373.021 216.62 358.313 227.463 347.469L427.542 147.386C438.385 136.542 453.094 130.448 468.432 130.448C483.765 130.448 498.474 136.542 509.318 147.386Z" fill="#0B0809" /><path d="M509.318 347.432C520.162 358.276 526.256 372.984 526.256 388.318C526.256 403.656 520.162 418.365 509.318 429.208L509.282 429.24C498.438 440.083 483.735 446.177 468.396 446.177C453.063 446.177 438.354 440.083 427.511 429.24C416.667 418.396 410.573 403.693 410.573 388.354C410.573 373.021 416.667 358.313 427.511 347.469L427.547 347.432C438.391 336.589 453.094 330.5 468.433 330.5C483.766 330.5 498.474 336.589 509.318 347.432Z" fill="#0B0809" /><path d="M307.74 139.718C318.583 150.562 324.672 165.271 324.672 180.609C324.672 195.942 318.583 210.651 307.74 221.494L99.9896 429.239C89.1458 440.083 74.4375 446.177 59.1042 446.177C43.7708 446.177 29.0625 440.083 18.2188 429.239C7.375 418.396 1.28125 403.692 1.28125 388.354C1.28125 373.021 7.375 358.312 18.2188 347.468L225.964 139.718C236.807 128.875 251.516 122.786 266.849 122.786C282.188 122.786 296.896 128.875 307.74 139.718Z" fill="#0B0809" />
    <g transform="translate(80 0)"><path d="M908.8 159.2V440H840.4V271.6L777.6 440H722.4L659.2 271.2V440H590.8V159.2H671.6L750.4 353.6L828.4 159.2H908.8ZM1168.39 324.8C1168.39 331.2 1167.99 337.867 1167.19 344.8H1012.39C1013.45 358.667 1017.85 369.333 1025.59 376.8C1033.59 384 1043.32 387.6 1054.79 387.6C1071.85 387.6 1083.72 380.4 1090.39 366H1163.19C1159.45 380.667 1152.65 393.867 1142.79 405.6C1133.19 417.333 1121.05 426.533 1106.39 433.2C1091.72 439.867 1075.32 443.2 1057.19 443.2C1035.32 443.2 1015.85 438.533 998.788 429.2C981.721 419.867 968.388 406.533 958.788 389.2C949.188 371.867 944.388 351.6 944.388 328.4C944.388 305.2 949.054 284.933 958.388 267.6C967.988 250.267 981.321 236.933 998.388 227.6C1015.45 218.267 1035.05 213.6 1057.19 213.6C1078.79 213.6 1097.99 218.133 1114.79 227.2C1131.59 236.267 1144.65 249.2 1153.99 266C1163.59 282.8 1168.39 302.4 1168.39 324.8ZM1098.39 306.8C1098.39 295.067 1094.39 285.733 1086.39 278.8C1078.39 271.867 1068.39 268.4 1056.39 268.4C1044.92 268.4 1035.19 271.733 1027.19 278.4C1019.45 285.067 1014.65 294.533 1012.79 306.8H1098.39ZM1340.47 214.4C1366.61 214.4 1387.41 222.933 1402.87 240C1418.61 256.8 1426.47 280 1426.47 309.6V440H1358.47V318.8C1358.47 303.867 1354.61 292.267 1346.87 284C1339.14 275.733 1328.74 271.6 1315.67 271.6C1302.61 271.6 1292.21 275.733 1284.47 284C1276.74 292.267 1272.87 303.867 1272.87 318.8V440H1204.47V216.8H1272.87V246.4C1279.81 236.533 1289.14 228.8 1300.87 223.2C1312.61 217.333 1325.81 214.4 1340.47 214.4ZM1598.4 382V440H1563.6C1538.8 440 1519.47 434 1505.6 422C1491.74 409.733 1484.8 389.867 1484.8 362.4V273.6H1457.6V216.8H1484.8V162.4H1553.2V216.8H1598V273.6H1553.2V363.2C1553.2 369.867 1554.8 374.667 1558 377.6C1561.2 380.533 1566.54 382 1574 382H1598.4ZM1670.9 193.6C1658.9 193.6 1649.04 190.133 1641.3 183.2C1633.84 176 1630.1 167.2 1630.1 156.8C1630.1 146.133 1633.84 137.333 1641.3 130.4C1649.04 123.2 1658.9 119.6 1670.9 119.6C1682.64 119.6 1692.24 123.2 1699.7 130.4C1707.44 137.333 1711.3 146.133 1711.3 156.8C1711.3 167.2 1707.44 176 1699.7 183.2C1692.24 190.133 1682.64 193.6 1670.9 193.6ZM1704.9 216.8V440H1636.5V216.8H1704.9ZM1856.07 443.2C1834.21 443.2 1814.47 438.533 1796.87 429.2C1779.54 419.867 1765.81 406.533 1755.67 389.2C1745.81 371.867 1740.87 351.6 1740.87 328.4C1740.87 305.467 1745.94 285.333 1756.07 268C1766.21 250.4 1780.07 236.933 1797.67 227.6C1815.27 218.267 1835.01 213.6 1856.87 213.6C1878.74 213.6 1898.47 218.267 1916.07 227.6C1933.67 236.933 1947.54 250.4 1957.67 268C1967.81 285.333 1972.87 305.467 1972.87 328.4C1972.87 351.333 1967.67 371.6 1957.27 389.2C1947.14 406.533 1933.14 419.867 1915.27 429.2C1897.67 438.533 1877.94 443.2 1856.07 443.2ZM1856.07 384C1869.14 384 1880.21 379.2 1889.27 369.6C1898.61 360 1903.27 346.267 1903.27 328.4C1903.27 310.533 1898.74 296.8 1889.67 287.2C1880.87 277.6 1869.94 272.8 1856.87 272.8C1843.54 272.8 1832.47 277.6 1823.67 287.2C1814.87 296.533 1810.47 310.267 1810.47 328.4C1810.47 346.267 1814.74 360 1823.27 369.6C1832.07 379.2 1843.01 384 1856.07 384ZM2145.16 214.4C2171.29 214.4 2192.09 222.933 2207.56 240C2223.29 256.8 2231.16 280 2231.16 309.6V440H2163.16V318.8C2163.16 303.867 2159.29 292.267 2151.56 284C2143.83 275.733 2133.43 271.6 2120.36 271.6C2107.29 271.6 2096.89 275.733 2089.16 284C2081.43 292.267 2077.56 303.867 2077.56 318.8V440H2009.16V216.8H2077.56V246.4C2084.49 236.533 2093.83 228.8 2105.56 223.2C2117.29 217.333 2130.49 214.4 2145.16 214.4ZM2380.29 442.8C2359.76 442.8 2341.36 439.467 2325.09 432.8C2308.82 426.133 2295.76 416.267 2285.89 403.2C2276.29 390.133 2271.22 374.4 2270.69 356H2343.49C2344.56 366.4 2348.16 374.4 2354.29 380C2360.42 385.333 2368.42 388 2378.29 388C2388.42 388 2396.42 385.733 2402.29 381.2C2408.16 376.4 2411.09 369.867 2411.09 361.6C2411.09 354.667 2408.69 348.933 2403.89 344.4C2399.36 339.867 2393.62 336.133 2386.69 333.2C2380.02 330.267 2370.42 326.933 2357.89 323.2C2339.76 317.6 2324.96 312 2313.49 306.4C2302.02 300.8 2292.16 292.533 2283.89 281.6C2275.62 270.667 2271.49 256.4 2271.49 238.8C2271.49 212.667 2280.96 192.267 2299.89 177.6C2318.82 162.667 2343.49 155.2 2373.89 155.2C2404.82 155.2 2429.76 162.667 2448.69 177.6C2467.62 192.267 2477.76 212.8 2479.09 239.2H2405.09C2404.56 230.133 2401.22 223.067 2395.09 218C2388.96 212.667 2381.09 210 2371.49 210C2363.22 210 2356.56 212.267 2351.49 216.8C2346.42 221.067 2343.89 227.333 2343.89 235.6C2343.89 244.667 2348.16 251.733 2356.69 256.8C2365.22 261.867 2378.56 267.333 2396.69 273.2C2414.82 279.333 2429.49 285.2 2440.69 290.8C2452.16 296.4 2462.02 304.533 2470.29 315.2C2478.56 325.867 2482.69 339.6 2482.69 356.4C2482.69 372.4 2478.56 386.933 2470.29 400C2462.29 413.067 2450.56 423.467 2435.09 431.2C2419.62 438.933 2401.36 442.8 2380.29 442.8ZM2511.18 328.4C2511.18 305.2 2515.85 284.933 2525.18 267.6C2534.78 250.267 2547.98 236.933 2564.78 227.6C2581.85 218.267 2601.32 213.6 2623.18 213.6C2651.18 213.6 2674.52 220.933 2693.18 235.6C2712.12 250.267 2724.52 270.933 2730.38 297.6H2657.58C2651.45 280.533 2639.58 272 2621.98 272C2609.45 272 2599.45 276.933 2591.98 286.8C2584.52 296.4 2580.78 310.267 2580.78 328.4C2580.78 346.533 2584.52 360.533 2591.98 370.4C2599.45 380 2609.45 384.8 2621.98 384.8C2639.58 384.8 2651.45 376.267 2657.58 359.2H2730.38C2724.52 385.333 2712.12 405.867 2693.18 420.8C2674.25 435.733 2650.92 443.2 2623.18 443.2C2601.32 443.2 2581.85 438.533 2564.78 429.2C2547.98 419.867 2534.78 406.533 2525.18 389.2C2515.85 371.867 2511.18 351.6 2511.18 328.4ZM2868.57 443.2C2846.71 443.2 2826.97 438.533 2809.37 429.2C2792.04 419.867 2778.31 406.533 2768.17 389.2C2758.31 371.867 2753.37 351.6 2753.37 328.4C2753.37 305.467 2758.44 285.333 2768.57 268C2778.71 250.4 2792.57 236.933 2810.17 227.6C2827.77 218.267 2847.51 213.6 2869.37 213.6C2891.24 213.6 2910.97 218.267 2928.57 227.6C2946.17 236.933 2960.04 250.4 2970.17 268C2980.31 285.333 2985.37 305.467 2985.37 328.4C2985.37 351.333 2980.17 371.6 2969.77 389.2C2959.64 406.533 2945.64 419.867 2927.77 429.2C2910.17 438.533 2890.44 443.2 2868.57 443.2ZM2868.57 384C2881.64 384 2892.71 379.2 2901.77 369.6C2911.11 360 2915.77 346.267 2915.77 328.4C2915.77 310.533 2911.24 296.8 2902.17 287.2C2893.37 277.6 2882.44 272.8 2869.37 272.8C2856.04 272.8 2844.97 277.6 2836.17 287.2C2827.37 296.533 2822.97 310.267 2822.97 328.4C2822.97 346.267 2827.24 360 2835.77 369.6C2844.57 379.2 2855.51 384 2868.57 384ZM3242.06 216.8V440H3173.66V409.6C3166.73 419.467 3157.26 427.467 3145.26 433.6C3133.53 439.467 3120.46 442.4 3106.06 442.4C3088.99 442.4 3073.93 438.667 3060.86 431.2C3047.79 423.467 3037.66 412.4 3030.46 398C3023.26 383.6 3019.66 366.667 3019.66 347.2V216.8H3087.66V338C3087.66 352.933 3091.53 364.533 3099.26 372.8C3106.99 381.067 3117.39 385.2 3130.46 385.2C3143.79 385.2 3154.33 381.067 3162.06 372.8C3169.79 364.533 3173.66 352.933 3173.66 338V216.8H3242.06ZM3415.59 382V440H3380.79C3355.99 440 3336.66 434 3322.79 422C3308.92 409.733 3301.99 389.867 3301.99 362.4V273.6H3274.79V216.8H3301.99V162.4H3370.39V216.8H3415.19V273.6H3370.39V363.2C3370.39 369.867 3371.99 374.667 3375.19 377.6C3378.39 380.533 3383.72 382 3391.19 382H3415.59Z" fill="#0B0809" /></g>
</svg>
